<svg width="48" height="48" viewBox="0 0 48 48" fill="none" xmlns="http://www.w3.org/2000/svg"><path d="M9.481 40H46.52c.814 0 1.481-.8 1.481-1.778V9.778C48 8.8 47.333 8 46.519 8H9.48C8.667 8 8 8.8 8 9.778v28.444C8 39.2 8.667 40 9.481 40z" fill="#0052FF"/><path d="M27 48V0H0v48h27z" fill="#BFE9FF"/><path d="M27 48V0H0v48h27z" fill="#CED2DB"/><path d="M27 8H9.462C8.658 8 8 8.8 8 9.778v28.444C8 39.2 8.658 40 9.462 40H27V8z" fill="#0A0B0D"/><path d="M18 24a3 3 0 100-6 3 3 0 000 6zM18 25.5c-3.315 0-6 2.017-6 4.5h12c0-2.483-2.685-4.5-6-4.5z" fill="#fff"/><path fill-rule="evenodd" clip-rule="evenodd" d="M48 24H27v16h19.519c.814 0 1.481-.8 1.481-1.778V24z" fill="#CED2DB"/><path d="M37.5 26l.972 4.94L43 32l-4.528 1.06L37.5 38l-.972-4.94L32 32l4.528-1.06L37.5 26z" fill="#0A0B0D"/><path fill-rule="evenodd" clip-rule="evenodd" d="M43.69 12.723l-8.023 7.66-4.358-4.16 1.381-1.446 2.977 2.84 6.642-6.34 1.382 1.446z" fill="#fff"/></svg>