<svg width="57" height="64" viewBox="0 0 57 64" fill="none" xmlns="http://www.w3.org/2000/svg"><path d="M28 0L-4 10.667V32c0 17.68 14.32 32 32 32s32-14.32 32-32V10.667L28 0z" fill="#CED2DB"/><path d="M28 0L-4 10.667V32h32V0z" fill="#0052FF"/><path d="M28 54.667c12.519 0 22.667-10.148 22.667-22.667C50.667 19.482 40.519 9.333 28 9.333 15.482 9.333 5.333 19.482 5.333 32c0 12.519 10.149 22.667 22.667 22.667z" fill="#fff"/><path d="M28 64c17.68 0 32-14.32 32-32H28v32z" fill="#0A0B0D"/><path d="M28 54.667c12.507 0 22.667-10.16 22.667-22.667H28v22.667z" fill="#0052FF"/><path d="M6.427 30.933c.533-11.066 9.44-19.973 20.506-20.506v20.506H6.427z" fill="#CED2DB"/><path d="M25.867 11.573v18.294H7.573c1.014-9.627 8.667-17.28 18.294-18.294zM28 9.333C15.493 9.333 5.333 19.493 5.333 32H28V9.333z" fill="#CED2DB"/><path d="M28 9.333C15.493 9.333 5.333 19.493 5.333 32H28V9.333z" fill="#5DE2F8"/><path d="M28 18.133c-7.653 0-13.867 6.214-13.867 13.867 0 7.653 6.214 13.867 13.867 13.867 4.08 0 7.733-1.76 10.267-4.534.293-.32.586-.666.853-1.04.267-.346.507-.72.747-1.093a9.99 9.99 0 00.64-1.173 13.753 13.753 0 001.36-6c0-7.68-6.214-13.894-13.867-13.894z" fill="#FFD200"/><path d="M14.133 32H28V18.133c-7.653 0-13.867 6.214-13.867 13.867z" fill="#0052FF"/><path fill-rule="evenodd" clip-rule="evenodd" d="M28 21.6c-5.744 0-10.4 4.656-10.4 10.4 0 5.744 4.656 10.4 10.4 10.4 5.744 0 10.4-4.656 10.4-10.4 0-5.744-4.656-10.4-10.4-10.4zM17.067 32c0-6.038 4.895-10.933 10.933-10.933S38.933 25.962 38.933 32 34.038 42.933 28 42.933 17.067 38.038 17.067 32zM46.4 32c0 5.087-2.057 9.687-5.385 13.015A18.343 18.343 0 0128 50.4v-.533a17.81 17.81 0 0012.638-5.229A17.81 17.81 0 0045.867 32h.533zM14.985 18.985A18.343 18.343 0 0128 13.6v.533a17.81 17.81 0 00-12.638 5.229A17.81 17.81 0 0010.133 32H9.6c0-5.087 2.057-9.687 5.385-13.015z" fill="#0A0B0D"/></svg>