<svg width="48" height="48" viewBox="0 0 48 48" fill="none" xmlns="http://www.w3.org/2000/svg"><path d="M48 24H0v24h48V24z" fill="#CED2DB"/><path d="M24 48A24 24 0 010 24h18a6 6 0 1012 0h18a24 24 0 01-24 24z" fill="#0052FF"/><path d="M48 24H30a6 6 0 10-12 0H0a24 24 0 1148 0z" fill="#CED2DB"/><path d="M9 32.98a9 9 0 100-18 9 9 0 000 18z" fill="#0A0B0D"/><path d="M0 24a9 9 0 0118 0H0z" fill="#0052FF"/><path d="M11.09 19.89H6.91a2 2 0 00-2 2v4.18a2 2 0 002 2h4.18a2 2 0 002-2v-4.18a2 2 0 00-2-2z" fill="#fff"/><path d="M39 32.98a9 9 0 100-18 9 9 0 000 18z" fill="#0052FF"/><path d="M48 24a9 9 0 01-18 0h18z" fill="#0A0B0D"/><path d="M38.98 23.98a3.18 3.18 0 100-6.36 3.18 3.18 0 000 6.36zM39 24a6.351 6.351 0 00-6.36 6.35 9 9 0 0012.71 0A6.35 6.35 0 0039 24z" fill="#fff"/></svg>