<svg width="64" height="64" viewBox="0 0 64 64" fill="none" xmlns="http://www.w3.org/2000/svg"><path d="M50.133 0H13.867v10.667h36.266V0z" fill="#5DE2F8"/><path d="M49.493 29.867H0V64h63.973L64 29.867H49.493zM58.667 29.867C58.667 15.147 46.72 3.2 32 3.2 17.28 3.2 5.333 15.147 5.333 29.867" fill="#CED2DB"/><path d="M13.867 29.867h36.266V10.32C45.387 5.893 39.013 3.2 32 3.2s-13.387 2.693-18.133 7.12v19.547z" fill="#0052FF"/><path d="M50.133 29.867c0-10.027-8.106-18.134-18.133-18.134S13.867 19.84 13.867 29.867" fill="#5DE2F8"/><path fill-rule="evenodd" clip-rule="evenodd" d="M9.333 29.867C9.333 17.454 19.48 7.2 32 7.2c12.522 0 22.667 10.254 22.667 22.667h-.534c0-12.12-9.908-22.134-22.133-22.134S9.867 17.747 9.867 29.867h-.534z" fill="#0A0B0D"/><path d="M50.133 29.867H13.867v19.2h36.266v-19.2z" fill="#0052FF"/><path d="M32 14.933c-8.24 0-14.933 6.694-14.933 14.934C17.067 38.107 23.76 44.8 32 44.8s14.933-6.693 14.933-14.933S40.24 14.933 32 14.933z" fill="#fff"/><path d="M19.2 29.867c0-7.067 5.733-12.8 12.8-12.8 7.067 0 12.8 5.733 12.8 12.8H19.2z" fill="#FFD200"/><path d="M44.8 29.867c0 7.066-5.733 12.8-12.8 12.8-7.067 0-12.8-5.734-12.8-12.8h25.6z" fill="#0052FF"/><path fill-rule="evenodd" clip-rule="evenodd" d="M32 20.533A9.333 9.333 0 1032 39.2a9.333 9.333 0 000-18.667zm-9.867 9.334C22.133 24.417 26.551 20 32 20c5.45 0 9.867 4.418 9.867 9.867 0 5.449-4.418 9.866-9.867 9.866-5.45 0-9.867-4.417-9.867-9.866zM9.6 48.69l-1.945-1.945-.377.377L9.6 49.444l2.322-2.322-.377-.377L9.6 48.69z" fill="#0A0B0D"/><path fill-rule="evenodd" clip-rule="evenodd" d="M9.867 29.867v19.2h-.534v-19.2h.534z" fill="#0A0B0D"/></svg>