<svg width="48" height="48" viewBox="0 0 48 48" fill="none" xmlns="http://www.w3.org/2000/svg"><path d="M0 24h48v24H0V24z" fill="#CED2DB"/><path d="M6 8h8v16H6V8z" fill="#00D17F"/><path d="M6 24h8v8H6v-8z" fill="#0A0B0D"/><path d="M20 16h8v8h-8v-8z" fill="#F34"/><path d="M20 24h8v16h-8V24z" fill="#0A0B0D"/><path d="M34 6h8v18h-8V6z" fill="#00D17F"/><path d="M34 24h8v6h-8v-6z" fill="#0A0B0D"/><path d="M23 10h2v6h-2v-6z" fill="#F34"/><path d="M9 2h2v6H9V2zM37 0h2v6h-2V0z" fill="#00D17F"/><path d="M37 30h2v6h-2v-6zM9 32h2v6H9v-6zM23 40h2v6h-2v-6z" fill="#0A0B0D"/></svg>